<?xml version="1.0" encoding="utf-8"?>
<!-- Generator: Adobe Illustrator 26.1.0, SVG Export Plug-In . SVG Version: 6.00 Build 0)  -->
<svg version="1.1" id="Layer_1" xmlns="http://www.w3.org/2000/svg" xmlns:xlink="http://www.w3.org/1999/xlink" x="0px" y="0px"
	 viewBox="0 0 1366 768" style="enable-background:new 0 0 1366 768;" xml:space="preserve">
<style type="text/css">
	.st0{fill:#233565;}
</style>
<g>
	<path id="text-0" class="st0" d="M34.1,347.9H8.5V208.1h51.3c11.2,0,20.4,1.9,27.7,5.7c7.2,3.8,12.7,8.9,16.3,15.4
		c3.6,6.5,5.4,13.6,5.4,21.5l0,0c0,8.5-2.2,16.3-6.7,23.4c-4.5,7.1-11.4,12.2-20.9,15.4l0,0l29,58.5H81.2l-26-55.1H34.1V347.9z
		 M34.1,229.4V274h24.2c8.5,0,14.8-2.1,18.8-6.2c4-4.1,6-9.6,6-16.4l0,0c0-6.7-2-12-5.9-16c-3.9-4-10.3-6-19.1-6l0,0H34.1z
		 M169.5,350.3L169.5,350.3c-12.4,0-21.9-3.9-28.7-11.6c-6.7-7.7-10.1-19-10.1-34l0,0v-55.9h25.4v53.5c0,8.5,1.7,15,5.2,19.6
		c3.5,4.5,8.9,6.8,16.4,6.8l0,0c7.1,0,12.9-2.5,17.5-7.6c4.6-5.1,6.9-12.1,6.9-21.2l0,0v-51.1h25.6v99.1h-22.6l-2-16.8
		c-3.1,5.9-7.5,10.5-13.3,14C184,348.6,177.2,350.3,169.5,350.3z M279.4,347.9h-25.6v-99.1h22.8l2.4,18.6
		c3.6-6.4,8.5-11.5,14.7-15.3c6.2-3.8,13.5-5.7,21.9-5.7l0,0v27h-7.2c-5.6,0-10.6,0.9-15,2.6c-4.4,1.7-7.8,4.7-10.3,9
		c-2.5,4.3-3.7,10.2-3.7,17.8l0,0V347.9z M367,350.3L367,350.3c-8.5,0-15.5-1.4-21-4.1c-5.5-2.7-9.5-6.3-12.2-10.9
		c-2.7-4.5-4-9.5-4-15l0,0c0-9.2,3.6-16.6,10.8-22.4c7.2-5.7,18-8.6,32.4-8.6l0,0h25.2V287c0-6.8-1.9-11.8-5.8-15
		c-3.9-3.2-8.7-4.8-14.4-4.8l0,0c-5.2,0-9.7,1.2-13.6,3.7c-3.9,2.5-6.3,6.1-7.2,10.9l0,0h-25c0.7-7.2,3.1-13.4,7.3-18.8
		c4.2-5.3,9.6-9.4,16.3-12.3c6.7-2.8,14.1-4.3,22.4-4.3l0,0c14.1,0,25.2,3.5,33.4,10.6c8.1,7.1,12.2,17,12.2,30l0,0v60.9H402
		l-2.4-16c-2.9,5.3-7,9.7-12.3,13.2C382,348.6,375.3,350.3,367,350.3z M372.8,330.3L372.8,330.3c7.3,0,13-2.4,17.1-7.2
		c4-4.8,6.6-10.7,7.7-17.8l0,0h-21.8c-6.8,0-11.7,1.2-14.6,3.7c-2.9,2.5-4.4,5.5-4.4,9.1l0,0c0,3.9,1.5,6.9,4.4,9
		C364.2,329.3,368,330.3,372.8,330.3z M473.7,347.9h-25.6V204.1h25.6V347.9z M611.3,350.3L611.3,350.3c-14.1,0-26.2-3-36.3-9.1
		c-10.1-6-17.9-14.5-23.4-25.4c-5.5-10.8-8.2-23.4-8.2-37.6l0,0c0-14.2,2.7-26.8,8.2-37.8c5.4-10.9,13.2-19.4,23.4-25.6
		c10.1-6.1,22.2-9.2,36.3-9.2l0,0c16.8,0,30.6,4.2,41.3,12.5c10.7,8.3,17.4,20,20.1,35.1l0,0h-28.1c-1.7-7.6-5.4-13.6-11.1-17.9
		c-5.6-4.3-13.1-6.5-22.5-6.5l0,0c-12.9,0-23,4.4-30.4,13.2s-11,20.8-11,36.2l0,0c0,15.3,3.7,27.3,11,36
		c7.3,8.7,17.4,13.1,30.4,13.1l0,0c9.3,0,16.8-2,22.5-6.1c5.7-4,9.4-9.7,11.1-16.9l0,0h28.1c-2.7,14.4-9.3,25.6-20.1,33.8
		C641.8,346.2,628.1,350.3,611.3,350.3z M742.1,350.3L742.1,350.3c-9.6,0-18.2-2.2-25.8-6.6c-7.7-4.4-13.7-10.5-18.2-18.3
		c-4.5-7.8-6.7-16.8-6.7-27l0,0c0-10.3,2.3-19.3,6.8-27.1c4.5-7.8,10.6-13.9,18.3-18.3c7.6-4.4,16.3-6.6,25.8-6.6l0,0
		c9.5,0,18,2.2,25.7,6.6c7.6,4.4,13.7,10.5,18.2,18.3c4.4,7.8,6.7,16.8,6.7,27.1l0,0c0,10.3-2.2,19.3-6.7,27
		c-4.5,7.8-10.6,13.9-18.3,18.3C760.2,348.1,751.6,350.3,742.1,350.3z M742.1,328.1L742.1,328.1c6.7,0,12.5-2.5,17.4-7.5
		c4.9-5,7.4-12.4,7.4-22.3l0,0c0-9.9-2.5-17.3-7.4-22.3c-4.9-5-10.7-7.5-17.2-7.5l0,0c-6.8,0-12.6,2.5-17.5,7.5
		c-4.9,5-7.3,12.4-7.3,22.3l0,0c0,9.9,2.4,17.3,7.3,22.3C729.7,325.6,735.4,328.1,742.1,328.1z M841.2,347.9h-25.6v-99.1h22.6
		l2,16.8c3.1-5.9,7.5-10.5,13.3-14c5.8-3.5,12.6-5.2,20.5-5.2l0,0c12.3,0,21.8,3.9,28.6,11.6c6.8,7.7,10.2,19,10.2,34l0,0v55.9
		h-25.6v-53.5c0-8.5-1.7-15-5.2-19.6c-3.5-4.5-8.9-6.8-16.2-6.8l0,0c-7.2,0-13.1,2.5-17.7,7.6c-4.6,5.1-6.9,12.1-6.9,21.2l0,0V347.9
		z M962.6,347.9h-25.6v-99.1h22.6l2,16.8c3.1-5.9,7.5-10.5,13.3-14c5.8-3.5,12.6-5.2,20.5-5.2l0,0c12.3,0,21.8,3.9,28.6,11.6
		c6.8,7.7,10.2,19,10.2,34l0,0v55.9h-25.6v-53.5c0-8.5-1.7-15-5.2-19.6c-3.5-4.5-8.9-6.8-16.2-6.8l0,0c-7.2,0-13.1,2.5-17.7,7.6
		c-4.6,5.1-6.9,12.1-6.9,21.2l0,0V347.9z M1106.7,350.3L1106.7,350.3c-10,0-18.8-2.1-26.6-6.4c-7.7-4.3-13.8-10.3-18.2-18
		c-4.4-7.7-6.6-16.6-6.6-26.8l0,0c0-10.3,2.2-19.4,6.5-27.4c4.3-8,10.3-14.2,18-18.7c7.7-4.4,16.7-6.7,27.1-6.7l0,0
		c9.7,0,18.3,2.1,25.8,6.4c7.5,4.3,13.3,10.1,17.5,17.5c4.2,7.4,6.3,15.6,6.3,24.7l0,0c0,1.5,0,3-0.1,4.6c-0.1,1.6-0.1,3.3-0.3,5
		l0,0h-75.3c0.5,7.7,3.2,13.8,8.1,18.2c4.9,4.4,10.8,6.6,17.7,6.6l0,0c5.2,0,9.5-1.2,13.1-3.5c3.5-2.3,6.2-5.3,7.9-9.1l0,0h26
		c-1.9,6.3-5,11.9-9.3,17.1c-4.3,5.1-9.6,9.2-16,12.1C1121.8,348.8,1114.6,350.3,1106.7,350.3z M1106.9,267.2L1106.9,267.2
		c-6.3,0-11.8,1.8-16.6,5.3c-4.8,3.5-7.9,8.9-9.2,16.1l0,0h49.3c-0.4-6.5-2.8-11.7-7.2-15.6C1118.8,269.1,1113.4,267.2,1106.9,267.2
		z M1226.5,350.3L1226.5,350.3c-10.1,0-19-2.2-26.8-6.6s-13.8-10.5-18.3-18.4c-4.5-7.9-6.7-16.8-6.7-27l0,0c0-10.1,2.2-19.1,6.7-27
		c4.4-7.9,10.5-14,18.3-18.4c7.7-4.4,16.6-6.6,26.8-6.6l0,0c12.7,0,23.3,3.3,32,9.9c8.7,6.6,14.2,15.7,16.6,27.3l0,0h-27
		c-1.3-4.8-4-8.6-7.9-11.3c-3.9-2.7-8.6-4.1-13.9-4.1l0,0c-7.1,0-13.1,2.7-18,8c-4.9,5.3-7.4,12.7-7.4,22.2l0,0
		c0,9.5,2.5,16.8,7.4,22.2c4.9,5.3,10.9,8,18,8l0,0c5.3,0,10-1.3,13.9-4c3.9-2.7,6.5-6.5,7.9-11.4l0,0h27
		c-2.4,11.2-7.9,20.2-16.6,27C1249.8,346.9,1239.1,350.3,1226.5,350.3z M1357.9,347.9h-17.4c-10.4,0-18.7-2.5-25-7.6s-9.4-14-9.4-27
		l0,0v-43.1h-17v-21.4h17l3-26.6h22.6v26.6h26.8v21.4h-26.8v43.3c0,4.8,1,8.1,3.1,9.9c2.1,1.8,5.6,2.7,10.7,2.7l0,0h12.4V347.9z"/>
	<g>
		<path id="text-1" class="st0" d="M56.6,434.1l-0.5-12.8c-3.4-1.3-7-2-10.8-2l0,0c-7.6,0-13.8,2.8-18.4,8.4c-4.7,5.6-7,13.8-7,24.6
			s2.5,18.3,7.4,22.7l0,0c3.4,3,8.1,4.6,14.1,4.6l0,0c3.8,0,7.7-0.4,11.6-1.3c3.9-0.9,6.5-1.7,7.9-2.5l0,0l1.4,5
			c-3,2-8.2,3.3-15.6,4l0,0c-2.2,0.3-4.4,0.4-6.8,0.4c-2.4,0-5.2-0.4-8.5-1.2c-3.2-0.8-6.2-2.3-9-4.7l0,0
			c-6.3-5.3-9.4-14.2-9.4-26.6s3-22,8.9-28.8c5.9-6.8,13.6-10.2,23-10.2l0,0c5.3,0,9.8,1,13.6,3.1l0,0c1.4,0.7,2.5,1.6,3.3,2.4l0,0
			v14.7L56.6,434.1z M104.3,471.6L104.3,471.6c-1.2-3.2-1.8-7-1.8-11.3l0,0c0-8.3,2.3-14.8,7-19.6c4.7-4.7,10.5-7.1,17.5-7.1l0,0
			c11,0,18.2,4.4,21.6,13.3l0,0c1.3,3.2,1.9,7,1.9,11.3l0,0c0,8.3-2.3,14.8-7,19.6c-4.7,4.8-10.5,7.1-17.5,7.1l0,0
			C115.1,484.9,107.8,480.5,104.3,471.6z M109.1,459.5c0,6.2,1.6,11,4.8,14.4c3.2,3.4,7.3,5.1,12.4,5.1c5.1,0,9.3-1.8,12.6-5.4
			c3.4-3.6,5.1-8.5,5.1-14.7c0-6.2-1.6-11-4.8-14.4c-3.2-3.4-7.3-5.1-12.4-5.1c-5.1,0-9.3,1.8-12.7,5.4
			C110.8,448.4,109.1,453.3,109.1,459.5z M201.3,433.5v6.1c5.1-3.7,9.8-5.7,14.4-5.9l0,0c4.1,0,7.3,0.5,9.5,1.5s4.1,2.4,5.5,4.3
			c1.4,1.9,2.2,4.5,2.2,7.8l0,0v37.2h-6.6V449c0-2.5-0.5-4.4-1.6-5.8l0,0c-2.2-2.5-5.5-3.7-9.9-3.7l0,0c-4.2,0.2-8.7,1.6-13.5,4.1
			l0,0v40.9h-6.6V434L201.3,433.5z M288.6,433.5v6.1c5.1-3.7,9.8-5.7,14.4-5.9l0,0c4.1,0,7.3,0.5,9.5,1.5s4.1,2.4,5.5,4.3
			c1.4,1.9,2.2,4.5,2.2,7.8l0,0v37.2h-6.6V449c0-2.5-0.5-4.4-1.6-5.8l0,0c-2.2-2.5-5.5-3.7-9.9-3.7l0,0c-4.2,0.2-8.7,1.6-13.5,4.1
			l0,0v40.9h-6.6V434L288.6,433.5z M374.4,459.6v1.6c0,11.9,5.7,17.8,17,17.8l0,0c4.8,0,9.2-0.6,13.1-1.9l0,0c1-0.3,1.7-0.6,2.1-0.8
			l0,0l1.5,5.4c-2.4,1.4-6.6,2.4-12.8,3l0,0c-1.8,0.1-3.6,0.2-5.6,0.2l0,0c-5.7,0-10.4-1.4-14.2-4.2l0,0c-5.2-3.8-7.8-10.2-7.8-19.2
			s2.3-15.9,7-20.7c4.7-4.8,10.4-7.2,17-7.2c6.7,0,11.7,2.2,15.1,6.5l0,0c2.6,3.4,3.8,8,3.8,13.7l0,0c0,1.3-0.1,2.8-0.2,4.2l0,0
			h-36.1C374.5,458.5,374.4,459,374.4,459.6L374.4,459.6z M392.3,439.8L392.3,439.8c-4.2,0-7.8,1.3-10.7,3.8c-3,2.5-5,5.8-6.2,9.8
			l0,0h29.4c-0.3-7.5-3.2-11.8-8.7-13l0,0C394.9,440,393.7,439.8,392.3,439.8z M488.3,451.4l-0.5-10.6c-2.8-0.9-5.6-1.3-8.5-1.3l0,0
			c-5.9,0-10.6,1.9-14.1,5.7c-3.5,3.8-5.3,9.1-5.3,16l0,0c0,12,5.6,18,16.7,18l0,0c4.4,0,9-0.7,13.8-2.2l0,0
			c0.9-0.3,1.5-0.5,1.7-0.6l0,0l1.6,5.5c-2.4,1.4-6.6,2.4-12.8,3l0,0c-1.8,0.1-3.6,0.2-5.6,0.2l0,0c-5.7,0-10.5-1.4-14.2-4.2l0,0
			c-5.2-3.9-7.8-10.3-7.8-19.3s2.4-15.9,7.2-20.7c4.8-4.8,11-7.2,18.6-7.2l0,0c2.4,0,5,0.3,7.7,1c2.7,0.6,4.8,1.6,6.3,3l0,0v13.2
			L488.3,451.4z M561.3,477.2l1.2,5.5c-1.2,1.2-3.4,1.8-6.6,1.8l0,0c-4.4,0-7.5-1.1-9-3.4l0,0c-2.6-2.5-3.9-5.9-3.9-10.1l0,0v-31.1
			h-5.7l0.9-5.9h4.8v-10l6.6-0.6V434h11.7v5.9h-11.7v32.8c0,3.9,2,5.9,6.1,5.9l0,0C557.3,478.5,559.2,478,561.3,477.2L561.3,477.2z
			 M697.1,477.2l1.2,5.5c-1.2,1.2-3.4,1.8-6.6,1.8l0,0c-4.4,0-7.5-1.1-9-3.4l0,0c-2.6-2.5-3.9-5.9-3.9-10.1l0,0v-31.1h-5.7l0.9-5.9
			h4.8v-10l6.6-0.6V434h11.7v5.9h-11.7v32.8c0,3.9,2,5.9,6.1,5.9l0,0C693.2,478.5,695.1,478,697.1,477.2L697.1,477.2z M751.1,408.7
			v31c5.3-3.8,10.5-5.9,15.4-6.1l0,0c4.2,0,7.4,0.5,9.6,1.5c2.2,1,4,2.4,5.5,4.3c1.4,1.9,2.1,4.5,2.1,7.8l0,0v37.2h-6.6V449
			c0-2.5-0.5-4.4-1.6-5.8l0,0c-2.2-2.5-5.5-3.7-9.9-3.7l0,0c-4.4,0.2-9.2,1.6-14.5,4.2l0,0v40.8h-6.6v-75.3L751.1,408.7z
			 M834.9,459.6v1.6c0,11.9,5.7,17.8,17,17.8l0,0c4.8,0,9.2-0.6,13.1-1.9l0,0c1-0.3,1.7-0.6,2.1-0.8l0,0l1.5,5.4
			c-2.4,1.4-6.6,2.4-12.8,3l0,0c-1.8,0.1-3.6,0.2-5.6,0.2l0,0c-5.7,0-10.4-1.4-14.2-4.2l0,0c-5.2-3.8-7.8-10.2-7.8-19.2
			s2.3-15.9,7-20.7c4.7-4.8,10.4-7.2,17-7.2c6.7,0,11.7,2.2,15.1,6.5l0,0c2.6,3.4,3.8,8,3.8,13.7l0,0c0,1.3-0.1,2.8-0.2,4.2l0,0H835
			C834.9,458.5,834.9,459,834.9,459.6L834.9,459.6z M852.8,439.8L852.8,439.8c-4.2,0-7.8,1.3-10.7,3.8c-3,2.5-5,5.8-6.2,9.8l0,0
			h29.4c-0.3-7.5-3.2-11.8-8.7-13l0,0C855.4,440,854.1,439.8,852.8,439.8z M1029.5,484.5l-11.9-40.7l-13.6,40.7H998L981.3,434
			l7.4-0.5l12.8,42.8l13.1-42.3l6.4-0.5l11.3,42.9l14.9-42.4l7.8-0.5l-19.4,51.1H1029.5z M1095.7,471.6L1095.7,471.6
			c-1.2-3.2-1.8-7-1.8-11.3l0,0c0-8.3,2.3-14.8,7-19.6c4.7-4.7,10.5-7.1,17.5-7.1l0,0c11,0,18.2,4.4,21.6,13.3l0,0
			c1.3,3.2,1.9,7,1.9,11.3l0,0c0,8.3-2.3,14.8-7,19.6c-4.7,4.8-10.5,7.1-17.5,7.1l0,0C1106.4,484.9,1099.2,480.5,1095.7,471.6z
			 M1100.4,459.5c0,6.2,1.6,11,4.8,14.4c3.2,3.4,7.3,5.1,12.4,5.1s9.3-1.8,12.6-5.4c3.4-3.6,5.1-8.5,5.1-14.7c0-6.2-1.6-11-4.8-14.4
			c-3.2-3.4-7.3-5.1-12.4-5.1c-5.1,0-9.3,1.8-12.7,5.4C1102.1,448.4,1100.4,453.3,1100.4,459.5z M1215.1,435l-2.6,6.1
			c-1.1-0.6-2.2-0.9-3.4-0.9c-1.2,0-1.9,0-2,0.1l0,0c-2.6,0-5.1,0.9-7.7,2.8c-2.6,1.9-4.8,3.9-6.6,6.2l0,0v35.3h-6.6V434l6.6-0.5
			v11.3c2.5-3.2,4.6-5.4,6.4-6.7l0,0c3.2-2.4,6.3-3.7,9.3-3.8l0,0c0.4-0.1,1.1-0.1,2.2-0.1S1213.2,434.4,1215.1,435L1215.1,435z
			 M1263.8,484.5h-6.6v-75.3l6.6-0.5V484.5z M1334.2,433.5L1334.2,433.5c4,0,7.8,1.2,11.3,3.5l0,0v-27.8l6.6-0.5v73.5h-0.5
			c-2.1,0.9-5.6,1.6-10.5,2c-4.9,0.5-8.3,0.7-10.2,0.7l0,0c-5.7,0-10.3-1.4-14.1-4.2l0,0c-5.2-3.9-7.8-10.3-7.8-19.3
			s2.4-15.9,7.2-20.7C1321.2,435.9,1327.1,433.5,1334.2,433.5z M1345.5,478v-36.7c-3.4-1.3-6.7-1.9-9.9-1.9l0,0
			c-6.2,0-11.1,1.9-14.6,5.7c-3.5,3.8-5.3,9.1-5.3,16.1c0,6.9,1.9,11.8,5.8,14.7l0,0c2.8,2.2,6.3,3.2,10.5,3.2
			C1336.2,479.1,1340.7,478.7,1345.5,478L1345.5,478z"/>
	</g>
</g>
</svg>
