<svg xmlns="http://www.w3.org/2000/svg" version="1.1" xmlns:xlink="http://www.w3.org/1999/xlink" xmlns:svgjs="http://svgjs.dev/svgjs" width="1000" height="1000" viewBox="0 0 1000 1000"><rect width="1000" height="1000" fill="#000000"></rect><g transform="matrix(0.7,0,0,0.7,149.57575757575756,282.1854255802722)"><svg viewBox="0 0 396 247" data-background-color="#ffffff" preserveAspectRatio="xMidYMid meet" height="623" width="1000" xmlns="http://www.w3.org/2000/svg" xmlns:xlink="http://www.w3.org/1999/xlink"><g id="tight-bounds" transform="matrix(1,0,0,1,0.2400000000000091,-0.13334124817063753)"><svg viewBox="0 0 395.52 247.2" height="247.2" width="395.52"><g><svg></svg></g><g><svg viewBox="0 0 395.52 247.2" height="247.2" width="395.52"><mask id="0d1516e4-41b1-4e84-99db-f72ba6112c38"><rect width="640" height="400" fill="white"></rect><g transform="matrix(1,0,0,1,39.55199999999999,89.26655630505059)"><svg viewBox="0 0 316.416 68.66688738989883" height="68.66688738989883" width="316.416"><g><svg viewBox="0 0 316.416 68.66688738989883" height="68.66688738989883" width="316.416"><g><svg viewBox="0 0 316.416 68.66688738989883" height="68.66688738989883" width="316.416"><g><svg viewBox="0 0 316.416 68.66688738989883" height="68.66688738989883" width="316.416"><g id="SvgjsG1587"><svg viewBox="0 0 316.416 68.66688738989883" height="68.66688738989883" width="316.416" id="SvgjsSvg1586"><g><svg viewBox="0 0 316.416 39.99344136831425" height="39.99344136831425" width="316.416"><g transform="matrix(1,0,0,1,0,0)"><svg width="316.416" viewBox="-0.6000000000000001 -40 345.92 44.6" height="39.99344136831425" data-palette-color="#233565"><path d="M9.8 0L3.4 0 3.4-35 16.25-35Q20.45-35 23.18-33.58 25.9-32.15 27.25-29.73 28.6-27.3 28.6-24.35L28.6-24.35Q28.6-21.15 26.93-18.5 25.25-15.85 21.7-14.65L21.7-14.65 28.95 0 21.6 0 15.1-13.8 9.8-13.8 9.8 0ZM9.8-29.65L9.8-18.5 15.85-18.5Q19.05-18.5 20.55-20.05 22.05-21.6 22.05-24.15L22.05-24.15Q22.05-26.65 20.58-28.15 19.1-29.65 15.8-29.65L15.8-29.65 9.8-29.65ZM43.7 0.6L43.7 0.6Q39.05 0.6 36.52-2.3 34-5.2 34-10.8L34-10.8 34-24.8 40.35-24.8 40.35-11.4Q40.35-8.2 41.65-6.5 42.95-4.8 45.75-4.8L45.75-4.8Q48.4-4.8 50.12-6.7 51.85-8.6 51.85-12L51.85-12 51.85-24.8 58.25-24.8 58.25 0 52.6 0 52.1-4.2Q50.95-2 48.77-0.7 46.6 0.6 43.7 0.6ZM71.2 0L64.8 0 64.8-24.8 70.5-24.8 71.09-20.15Q72.45-22.55 74.77-23.98 77.09-25.4 80.25-25.4L80.25-25.4 80.25-18.65 78.45-18.65Q76.34-18.65 74.7-18 73.05-17.35 72.12-15.75 71.2-14.15 71.2-11.3L71.2-11.3 71.2 0ZM93.14 0.6L93.14 0.6Q89.94 0.6 87.89-0.43 85.84-1.45 84.84-3.15 83.84-4.85 83.84-6.9L83.84-6.9Q83.84-10.35 86.54-12.5 89.24-14.65 94.64-14.65L94.64-14.65 100.94-14.65 100.94-15.25Q100.94-17.8 99.49-19 98.04-20.2 95.89-20.2L95.89-20.2Q93.94-20.2 92.49-19.28 91.04-18.35 90.69-16.55L90.69-16.55 84.44-16.55Q84.69-19.25 86.27-21.25 87.84-23.25 90.34-24.33 92.84-25.4 95.94-25.4L95.94-25.4Q101.24-25.4 104.29-22.75 107.34-20.1 107.34-15.25L107.34-15.25 107.34 0 101.89 0 101.29-4Q100.19-2 98.22-0.7 96.24 0.6 93.14 0.6ZM94.59-4.4L94.59-4.4Q97.34-4.4 98.87-6.2 100.39-8 100.79-10.65L100.79-10.65 95.34-10.65Q92.79-10.65 91.69-9.73 90.59-8.8 90.59-7.45L90.59-7.45Q90.59-6 91.69-5.2 92.79-4.4 94.59-4.4ZM119.84 0L113.44 0 113.44-36 119.84-36 119.84 0ZM154.28 0.6L154.28 0.6Q148.98 0.6 145.19-1.68 141.38-3.95 139.34-8.03 137.28-12.1 137.28-17.45L137.28-17.45Q137.28-22.8 139.34-26.9 141.38-31 145.19-33.3 148.98-35.6 154.28-35.6L154.28-35.6Q160.59-35.6 164.61-32.48 168.63-29.35 169.63-23.7L169.63-23.7 162.59-23.7Q161.94-26.55 159.81-28.18 157.69-29.8 154.19-29.8L154.19-29.8Q149.34-29.8 146.59-26.5 143.84-23.2 143.84-17.45L143.84-17.45Q143.84-11.7 146.59-8.43 149.34-5.15 154.19-5.15L154.19-5.15Q157.69-5.15 159.81-6.68 161.94-8.2 162.59-10.9L162.59-10.9 169.63-10.9Q168.63-5.5 164.61-2.45 160.59 0.6 154.28 0.6ZM187.03 0.6L187.03 0.6Q183.43 0.6 180.56-1.05 177.68-2.7 176.01-5.63 174.33-8.55 174.33-12.4L174.33-12.4Q174.33-16.25 176.03-19.18 177.73-22.1 180.61-23.75 183.48-25.4 187.08-25.4L187.08-25.4Q190.63-25.4 193.51-23.75 196.38-22.1 198.06-19.18 199.73-16.25 199.73-12.4L199.73-12.4Q199.73-8.55 198.06-5.63 196.38-2.7 193.48-1.05 190.58 0.6 187.03 0.6ZM187.03-4.95L187.03-4.95Q189.53-4.95 191.38-6.83 193.23-8.7 193.23-12.4L193.23-12.4Q193.23-16.1 191.38-17.98 189.53-19.85 187.08-19.85L187.08-19.85Q184.53-19.85 182.71-17.98 180.88-16.1 180.88-12.4L180.88-12.4Q180.88-8.7 182.71-6.83 184.53-4.95 187.03-4.95ZM211.83 0L205.43 0 205.43-24.8 211.08-24.8 211.58-20.6Q212.73-22.8 214.91-24.1 217.08-25.4 220.03-25.4L220.03-25.4Q224.63-25.4 227.18-22.5 229.73-19.6 229.73-14L229.73-14 229.73 0 223.33 0 223.33-13.4Q223.33-16.6 222.03-18.3 220.73-20 217.98-20L217.98-20Q215.28-20 213.56-18.1 211.83-16.2 211.83-12.8L211.83-12.8 211.83 0ZM242.23 0L235.83 0 235.83-24.8 241.48-24.8 241.98-20.6Q243.13-22.8 245.3-24.1 247.48-25.4 250.43-25.4L250.43-25.4Q255.03-25.4 257.58-22.5 260.13-19.6 260.13-14L260.13-14 260.13 0 253.73 0 253.73-13.4Q253.73-16.6 252.43-18.3 251.13-20 248.38-20L248.38-20Q245.68-20 243.95-18.1 242.23-16.2 242.23-12.8L242.23-12.8 242.23 0ZM278.28 0.6L278.28 0.6Q274.53 0.6 271.63-1 268.73-2.6 267.08-5.5 265.43-8.4 265.43-12.2L265.43-12.2Q265.43-16.05 267.05-19.05 268.68-22.05 271.55-23.73 274.43-25.4 278.33-25.4L278.33-25.4Q281.98-25.4 284.78-23.8 287.58-22.2 289.15-19.43 290.73-16.65 290.73-13.25L290.73-13.25Q290.73-12.7 290.7-12.1 290.68-11.5 290.63-10.85L290.63-10.85 271.78-10.85Q271.98-7.95 273.8-6.3 275.63-4.65 278.23-4.65L278.23-4.65Q280.18-4.65 281.5-5.53 282.83-6.4 283.48-7.8L283.48-7.8 289.98-7.8Q289.28-5.45 287.65-3.53 286.03-1.6 283.65-0.5 281.28 0.6 278.28 0.6ZM278.33-20.2L278.33-20.2Q275.98-20.2 274.18-18.88 272.38-17.55 271.88-14.85L271.88-14.85 284.23-14.85Q284.08-17.3 282.43-18.75 280.78-20.2 278.33-20.2ZM308.27 0.6L308.27 0.6Q304.47 0.6 301.57-1.05 298.67-2.7 297-5.65 295.32-8.6 295.32-12.4L295.32-12.4Q295.32-16.2 297-19.15 298.67-22.1 301.57-23.75 304.47-25.4 308.27-25.4L308.27-25.4Q313.02-25.4 316.27-22.93 319.52-20.45 320.42-16.1L320.42-16.1 313.67-16.1Q313.17-17.9 311.7-18.93 310.22-19.95 308.22-19.95L308.22-19.95Q305.57-19.95 303.72-17.95 301.87-15.95 301.87-12.4L301.87-12.4Q301.87-8.85 303.72-6.85 305.57-4.85 308.22-4.85L308.22-4.85Q310.22-4.85 311.7-5.85 313.17-6.85 313.67-8.7L313.67-8.7 320.42-8.7Q319.52-4.5 316.27-1.95 313.02 0.6 308.27 0.6ZM341.17 0L336.82 0Q332.92 0 330.57-1.9 328.22-3.8 328.22-8.65L328.22-8.65 328.22-19.45 323.97-19.45 323.97-24.8 328.22-24.8 328.97-31.45 334.62-31.45 334.62-24.8 341.32-24.8 341.32-19.45 334.62-19.45 334.62-8.6Q334.62-6.8 335.39-6.13 336.17-5.45 338.07-5.45L338.07-5.45 341.17-5.45 341.17 0Z" opacity="1" transform="matrix(1,0,0,1,0,0)" fill="black" class="wordmark-text-0" id="SvgjsPath1585" stroke-width="7" stroke="black" stroke-linejoin="round"></path></svg></g></svg></g><g transform="matrix(1,0,0,1,3.5,47.919097215090886)"><svg viewBox="0 0 309.416 20.747790174807946" height="20.747790174807946" width="309.416"><g transform="matrix(1,0,0,1,0,0)"><svg width="309.416" viewBox="-0.75 -41.5 670.11 45.7" height="20.747790174807946" data-palette-color="#233565"><path d="M24.85-24.95L24.6-31.3Q22.05-32.3 19.25-32.3L19.25-32.3Q13.6-32.3 10.13-28.15 6.65-24 6.65-16 6.65-8 10.3-4.8L10.3-4.8Q12.8-2.55 17.25-2.55L17.25-2.55Q20.1-2.55 22.98-3.2 25.85-3.85 26.9-4.45L26.9-4.45 27.6-2Q25.4-0.55 19.9 0L19.9 0Q18.3 0.2 16.53 0.2 14.75 0.2 12.35-0.38 9.95-0.95 7.9-2.7L7.9-2.7Q3.25-6.65 3.25-15.85 3.25-25.05 7.63-30.08 12-35.1 19-35.1L19-35.1Q22.9-35.1 25.7-33.55L25.7-33.55Q26.75-33 27.35-32.35L27.35-32.35 27.35-25.1 24.85-24.95ZM48.46-6.4L48.46-6.4Q47.56-8.8 47.56-12L47.56-12Q47.56-18.15 51.01-21.68 54.46-25.2 59.66-25.2L59.66-25.2Q67.81-25.2 70.36-18.6L70.36-18.6Q71.31-16.2 71.31-13L71.31-13Q71.31-6.85 67.86-3.33 64.41 0.2 59.21 0.2L59.21 0.2Q51.06 0.2 48.46-6.4ZM50.81-12.35Q50.81-7.75 53.19-5.23 55.56-2.7 59.31-2.7 63.06-2.7 65.56-5.38 68.06-8.05 68.06-12.65 68.06-17.25 65.71-19.78 63.36-22.3 59.59-22.3 55.81-22.3 53.31-19.63 50.81-16.95 50.81-12.35ZM96.42-25.25L96.42-22.25Q100.17-25 103.52-25.15L103.52-25.15Q106.57-25.15 108.22-24.4 109.87-23.65 110.95-22.28 112.02-20.9 112.02-18.4L112.02-18.4 112.02 0 108.77 0 108.77-17.55Q108.77-19.4 107.97-20.4L107.97-20.4Q106.37-22.25 103.07-22.25L103.07-22.25Q99.92-22.1 96.42-20.2L96.42-20.2 96.42 0 93.17 0 93.17-25 96.42-25.25ZM139.58-25.25L139.58-22.25Q143.33-25 146.68-25.15L146.68-25.15Q149.73-25.15 151.38-24.4 153.03-23.65 154.11-22.28 155.18-20.9 155.18-18.4L155.18-18.4 155.18 0 151.93 0 151.93-17.55Q151.93-19.4 151.13-20.4L151.13-20.4Q149.53-22.25 146.23-22.25L146.23-22.25Q143.08-22.1 139.58-20.2L139.58-20.2 139.58 0 136.33 0 136.33-25 139.58-25.25ZM181.99-12.3L181.99-11.5Q181.99-2.7 190.39-2.7L190.39-2.7Q193.94-2.7 196.89-3.65L196.89-3.65Q197.64-3.9 197.94-4.05L197.94-4.05 198.69-1.4Q196.94-0.35 192.34 0.1L192.34 0.1Q191.04 0.2 189.59 0.2L189.59 0.2Q185.39 0.2 182.59-1.9L182.59-1.9Q178.74-4.75 178.74-11.4 178.74-18.05 182.22-21.63 185.69-25.2 190.64-25.2 195.59-25.2 198.09-22L198.09-22Q199.99-19.45 199.99-15.25L199.99-15.25Q199.99-14.25 199.89-13.15L199.89-13.15 182.04-13.15Q181.99-12.75 181.99-12.3L181.99-12.3ZM190.84-22.1L190.84-22.1Q187.74-22.1 185.54-20.23 183.34-18.35 182.49-15.4L182.49-15.4 197.04-15.4Q196.79-20.95 192.74-21.85L192.74-21.85Q191.84-22.1 190.84-22.1ZM238.3-16.4L238.05-21.65Q236-22.3 233.85-22.3L233.85-22.3Q229.5-22.3 226.88-19.5 224.25-16.7 224.25-11.6L224.25-11.6Q224.25-2.7 232.5-2.7L232.5-2.7Q235.8-2.7 239.3-3.8L239.3-3.8Q240-4 240.15-4.1L240.15-4.1 240.95-1.4Q239.2-0.35 234.6 0.1L234.6 0.1Q233.3 0.2 231.85 0.2L231.85 0.2Q227.6 0.2 224.85-1.9L224.85-1.9Q221-4.8 221-11.45 221-18.1 224.58-21.68 228.15-25.25 233.8-25.25L233.8-25.25Q235.6-25.25 237.63-24.78 239.65-24.3 240.75-23.3L240.75-23.3 240.75-16.75 238.3-16.4ZM274.36-3.6L274.96-0.9Q274.06 0 271.71 0L271.71 0Q268.41 0 267.26-1.7L267.26-1.7Q265.31-3.55 265.31-6.7L265.31-6.7 265.31-22.1 262.51-22.1 262.96-25 265.31-25 265.31-29.95 268.56-30.25 268.56-25 274.36-25 274.36-22.1 268.56-22.1 268.56-5.9Q268.56-3 271.56-3L271.56-3Q272.86-3 274.36-3.6L274.36-3.6ZM341.53-3.6L342.13-0.9Q341.23 0 338.88 0L338.88 0Q335.58 0 334.43-1.7L334.43-1.7Q332.48-3.55 332.48-6.7L332.48-6.7 332.48-22.1 329.68-22.1 330.13-25 332.48-25 332.48-29.95 335.73-30.25 335.73-25 341.53-25 341.53-22.1 335.73-22.1 335.73-5.9Q335.73-3 338.73-3L338.73-3Q340.03-3 341.53-3.6L341.53-3.6ZM368.24-37.5L368.24-22.15Q372.19-25 375.84-25.15L375.84-25.15Q378.94-25.15 380.59-24.4 382.24-23.65 383.29-22.28 384.34-20.9 384.34-18.4L384.34-18.4 384.34 0 381.09 0 381.09-17.55Q381.09-19.4 380.29-20.4L380.29-20.4Q378.69-22.25 375.39-22.25L375.39-22.25Q372.14-22.1 368.24-20.15L368.24-20.15 368.24 0 364.99 0 364.99-37.25 368.24-37.5ZM409.65-12.3L409.65-11.5Q409.65-2.7 418.05-2.7L418.05-2.7Q421.6-2.7 424.55-3.65L424.55-3.65Q425.3-3.9 425.6-4.05L425.6-4.05 426.35-1.4Q424.6-0.35 420 0.1L420 0.1Q418.7 0.2 417.25 0.2L417.25 0.2Q413.05 0.2 410.25-1.9L410.25-1.9Q406.4-4.75 406.4-11.4 406.4-18.05 409.88-21.63 413.35-25.2 418.3-25.2 423.25-25.2 425.75-22L425.75-22Q427.65-19.45 427.65-15.25L427.65-15.25Q427.65-14.25 427.55-13.15L427.55-13.15 409.7-13.15Q409.65-12.75 409.65-12.3L409.65-12.3ZM418.5-22.1L418.5-22.1Q415.4-22.1 413.2-20.23 411-18.35 410.15-15.4L410.15-15.4 424.7-15.4Q424.45-20.95 420.4-21.85L420.4-21.85Q419.5-22.1 418.5-22.1ZM505.87 0L499.97-20.1 493.27 0 490.27 0 482.02-25 485.67-25.25 492.02-4.1 498.52-25 501.67-25.25 507.27-4.05 514.62-25 518.47-25.25 508.87 0 505.87 0ZM538.58-6.4L538.58-6.4Q537.68-8.8 537.68-12L537.68-12Q537.68-18.15 541.13-21.68 544.58-25.2 549.78-25.2L549.78-25.2Q557.93-25.2 560.48-18.6L560.48-18.6Q561.43-16.2 561.43-13L561.43-13Q561.43-6.85 557.98-3.33 554.53 0.2 549.33 0.2L549.33 0.2Q541.18 0.2 538.58-6.4ZM540.93-12.35Q540.93-7.75 543.31-5.23 545.68-2.7 549.43-2.7 553.18-2.7 555.68-5.38 558.18-8.05 558.18-12.65 558.18-17.25 555.83-19.78 553.48-22.3 549.71-22.3 545.93-22.3 543.43-19.63 540.93-16.95 540.93-12.35ZM597.64-24.5L596.34-21.5Q595.54-21.95 594.64-21.95 593.74-21.95 593.64-21.9L593.64-21.9Q591.74-21.9 589.82-20.53 587.89-19.15 586.54-17.45L586.54-17.45 586.54 0 583.29 0 583.29-25 586.54-25.25 586.54-19.65Q588.39-22 589.69-22.95L589.69-22.95Q592.09-24.75 594.29-24.85L594.29-24.85Q594.59-24.9 595.39-24.9 596.19-24.9 597.64-24.5L597.64-24.5ZM621.7 0L618.45 0 618.45-37.25 621.7-37.5 621.7 0ZM656.51-25.25L656.51-25.25Q659.46-25.25 662.11-23.5L662.11-23.5 662.11-37.25 665.36-37.5 665.36-1.15 665.11-1.15Q663.56-0.5 659.94-0.15 656.31 0.2 654.91 0.2L654.91 0.2Q650.71 0.2 647.96-1.9L647.96-1.9Q644.11-4.8 644.11-11.45 644.11-18.1 647.69-21.68 651.26-25.25 656.51-25.25ZM662.11-3.2L662.11-21.35Q659.61-22.3 657.21-22.3L657.21-22.3Q652.61-22.3 649.99-19.5 647.36-16.7 647.36-11.55 647.36-6.4 650.21-4.3L650.21-4.3Q652.26-2.7 655.39-2.7 658.51-2.7 662.11-3.2L662.11-3.2Z" opacity="1" transform="matrix(1,0,0,1,0,0)" fill="black" class="slogan-text-1" id="SvgjsPath1584" stroke-width="7" stroke="black" stroke-linejoin="round"></path></svg></g></svg></g></svg></g></svg></g></svg></g></svg></g></svg></g></mask><g transform="matrix(1,0,0,1,39.55199999999999,89.26655630505059)"><svg viewBox="0 0 316.416 68.66688738989883" height="68.66688738989883" width="316.416"><g><svg viewBox="0 0 316.416 68.66688738989883" height="68.66688738989883" width="316.416"><g><svg viewBox="0 0 316.416 68.66688738989883" height="68.66688738989883" width="316.416"><g><svg viewBox="0 0 316.416 68.66688738989883" height="68.66688738989883" width="316.416"><g id="textblocktransform"><svg viewBox="0 0 316.416 68.66688738989883" height="68.66688738989883" width="316.416" id="textblock"><g><svg viewBox="0 0 316.416 39.99344136831425" height="39.99344136831425" width="316.416"><g transform="matrix(1,0,0,1,0,0)"><svg width="316.416" viewBox="-0.6000000000000001 -40 345.92 44.6" height="39.99344136831425" data-palette-color="#233565"><path d="M9.8 0L3.4 0 3.4-35 16.25-35Q20.45-35 23.18-33.58 25.9-32.15 27.25-29.73 28.6-27.3 28.6-24.35L28.6-24.35Q28.6-21.15 26.93-18.5 25.25-15.85 21.7-14.65L21.7-14.65 28.95 0 21.6 0 15.1-13.8 9.8-13.8 9.8 0ZM9.8-29.65L9.8-18.5 15.85-18.5Q19.05-18.5 20.55-20.05 22.05-21.6 22.05-24.15L22.05-24.15Q22.05-26.65 20.58-28.15 19.1-29.65 15.8-29.65L15.8-29.65 9.8-29.65ZM43.7 0.6L43.7 0.6Q39.05 0.6 36.52-2.3 34-5.2 34-10.8L34-10.8 34-24.8 40.35-24.8 40.35-11.4Q40.35-8.2 41.65-6.5 42.95-4.8 45.75-4.8L45.75-4.8Q48.4-4.8 50.12-6.7 51.85-8.6 51.85-12L51.85-12 51.85-24.8 58.25-24.8 58.25 0 52.6 0 52.1-4.2Q50.95-2 48.77-0.7 46.6 0.6 43.7 0.6ZM71.2 0L64.8 0 64.8-24.8 70.5-24.8 71.09-20.15Q72.45-22.55 74.77-23.98 77.09-25.4 80.25-25.4L80.25-25.4 80.25-18.65 78.45-18.65Q76.34-18.65 74.7-18 73.05-17.35 72.12-15.75 71.2-14.15 71.2-11.3L71.2-11.3 71.2 0ZM93.14 0.6L93.14 0.6Q89.94 0.6 87.89-0.43 85.84-1.45 84.84-3.15 83.84-4.85 83.84-6.9L83.84-6.9Q83.84-10.35 86.54-12.5 89.24-14.65 94.64-14.65L94.64-14.65 100.94-14.65 100.94-15.25Q100.94-17.8 99.49-19 98.04-20.2 95.89-20.2L95.89-20.2Q93.94-20.2 92.49-19.28 91.04-18.35 90.69-16.55L90.69-16.55 84.44-16.55Q84.69-19.25 86.27-21.25 87.84-23.25 90.34-24.33 92.84-25.4 95.94-25.4L95.94-25.4Q101.24-25.4 104.29-22.75 107.34-20.1 107.34-15.25L107.34-15.25 107.34 0 101.89 0 101.29-4Q100.19-2 98.22-0.7 96.24 0.6 93.14 0.6ZM94.59-4.4L94.59-4.4Q97.34-4.4 98.87-6.2 100.39-8 100.79-10.65L100.79-10.65 95.34-10.65Q92.79-10.65 91.69-9.73 90.59-8.8 90.59-7.45L90.59-7.45Q90.59-6 91.69-5.2 92.79-4.4 94.59-4.4ZM119.84 0L113.44 0 113.44-36 119.84-36 119.84 0ZM154.28 0.6L154.28 0.6Q148.98 0.6 145.19-1.68 141.38-3.95 139.34-8.03 137.28-12.1 137.28-17.45L137.28-17.45Q137.28-22.8 139.34-26.9 141.38-31 145.19-33.3 148.98-35.6 154.28-35.6L154.28-35.6Q160.59-35.6 164.61-32.48 168.63-29.35 169.63-23.7L169.63-23.7 162.59-23.7Q161.94-26.55 159.81-28.18 157.69-29.8 154.19-29.8L154.19-29.8Q149.34-29.8 146.59-26.5 143.84-23.2 143.84-17.45L143.84-17.45Q143.84-11.7 146.59-8.43 149.34-5.15 154.19-5.15L154.19-5.15Q157.69-5.15 159.81-6.68 161.94-8.2 162.59-10.9L162.59-10.9 169.63-10.9Q168.63-5.5 164.61-2.45 160.59 0.6 154.28 0.6ZM187.03 0.6L187.03 0.6Q183.43 0.6 180.56-1.05 177.68-2.7 176.01-5.63 174.33-8.55 174.33-12.4L174.33-12.4Q174.33-16.25 176.03-19.18 177.73-22.1 180.61-23.75 183.48-25.4 187.08-25.4L187.08-25.4Q190.63-25.4 193.51-23.75 196.38-22.1 198.06-19.18 199.73-16.25 199.73-12.4L199.73-12.4Q199.73-8.55 198.06-5.63 196.38-2.7 193.48-1.05 190.58 0.6 187.03 0.6ZM187.03-4.95L187.03-4.95Q189.53-4.95 191.38-6.83 193.23-8.7 193.23-12.4L193.23-12.4Q193.23-16.1 191.38-17.98 189.53-19.85 187.08-19.85L187.08-19.85Q184.53-19.85 182.71-17.98 180.88-16.1 180.88-12.4L180.88-12.4Q180.88-8.7 182.71-6.83 184.53-4.95 187.03-4.95ZM211.83 0L205.43 0 205.43-24.8 211.08-24.8 211.58-20.6Q212.73-22.8 214.91-24.1 217.08-25.4 220.03-25.4L220.03-25.4Q224.63-25.4 227.18-22.5 229.73-19.6 229.73-14L229.73-14 229.73 0 223.33 0 223.33-13.4Q223.33-16.6 222.03-18.3 220.73-20 217.98-20L217.98-20Q215.28-20 213.56-18.1 211.83-16.2 211.83-12.8L211.83-12.8 211.83 0ZM242.23 0L235.83 0 235.83-24.8 241.48-24.8 241.98-20.6Q243.13-22.8 245.3-24.1 247.48-25.4 250.43-25.4L250.43-25.4Q255.03-25.4 257.58-22.5 260.13-19.6 260.13-14L260.13-14 260.13 0 253.73 0 253.73-13.4Q253.73-16.6 252.43-18.3 251.13-20 248.38-20L248.38-20Q245.68-20 243.95-18.1 242.23-16.2 242.23-12.8L242.23-12.8 242.23 0ZM278.28 0.6L278.28 0.6Q274.53 0.6 271.63-1 268.73-2.6 267.08-5.5 265.43-8.4 265.43-12.2L265.43-12.2Q265.43-16.05 267.05-19.05 268.68-22.05 271.55-23.73 274.43-25.4 278.33-25.4L278.33-25.4Q281.98-25.4 284.78-23.8 287.58-22.2 289.15-19.43 290.73-16.65 290.73-13.25L290.73-13.25Q290.73-12.7 290.7-12.1 290.68-11.5 290.63-10.85L290.63-10.85 271.78-10.85Q271.98-7.95 273.8-6.3 275.63-4.65 278.23-4.65L278.23-4.65Q280.18-4.65 281.5-5.53 282.83-6.4 283.48-7.8L283.48-7.8 289.98-7.8Q289.28-5.45 287.65-3.53 286.03-1.6 283.65-0.5 281.28 0.6 278.28 0.6ZM278.33-20.2L278.33-20.2Q275.98-20.2 274.18-18.88 272.38-17.55 271.88-14.85L271.88-14.85 284.23-14.85Q284.08-17.3 282.43-18.75 280.78-20.2 278.33-20.2ZM308.27 0.6L308.27 0.6Q304.47 0.6 301.57-1.05 298.67-2.7 297-5.65 295.32-8.6 295.32-12.4L295.32-12.4Q295.32-16.2 297-19.15 298.67-22.1 301.57-23.75 304.47-25.4 308.27-25.4L308.27-25.4Q313.02-25.4 316.27-22.93 319.52-20.45 320.42-16.1L320.42-16.1 313.67-16.1Q313.17-17.9 311.7-18.93 310.22-19.95 308.22-19.95L308.22-19.95Q305.57-19.95 303.72-17.95 301.87-15.95 301.87-12.4L301.87-12.4Q301.87-8.85 303.72-6.85 305.57-4.85 308.22-4.85L308.22-4.85Q310.22-4.85 311.7-5.85 313.17-6.85 313.67-8.7L313.67-8.7 320.42-8.7Q319.52-4.5 316.27-1.95 313.02 0.6 308.27 0.6ZM341.17 0L336.82 0Q332.92 0 330.57-1.9 328.22-3.8 328.22-8.65L328.22-8.65 328.22-19.45 323.97-19.45 323.97-24.8 328.22-24.8 328.97-31.45 334.62-31.45 334.62-24.8 341.32-24.8 341.32-19.45 334.62-19.45 334.62-8.6Q334.62-6.8 335.39-6.13 336.17-5.45 338.07-5.45L338.07-5.45 341.17-5.45 341.17 0Z" opacity="1" transform="matrix(1,0,0,1,0,0)" fill="#ffffff" class="wordmark-text-0" data-fill-palette-color="primary" id="text-0"></path></svg></g></svg></g><g transform="matrix(1,0,0,1,3.5,47.919097215090886)"><svg viewBox="0 0 309.416 20.747790174807946" height="20.747790174807946" width="309.416"><g transform="matrix(1,0,0,1,0,0)"><svg width="309.416" viewBox="-0.75 -41.5 670.11 45.7" height="20.747790174807946" data-palette-color="#233565"><path d="M24.85-24.95L24.6-31.3Q22.05-32.3 19.25-32.3L19.25-32.3Q13.6-32.3 10.13-28.15 6.65-24 6.65-16 6.65-8 10.3-4.8L10.3-4.8Q12.8-2.55 17.25-2.55L17.25-2.55Q20.1-2.55 22.98-3.2 25.85-3.85 26.9-4.45L26.9-4.45 27.6-2Q25.4-0.55 19.9 0L19.9 0Q18.3 0.2 16.53 0.2 14.75 0.2 12.35-0.38 9.95-0.95 7.9-2.7L7.9-2.7Q3.25-6.65 3.25-15.85 3.25-25.05 7.63-30.08 12-35.1 19-35.1L19-35.1Q22.9-35.1 25.7-33.55L25.7-33.55Q26.75-33 27.35-32.35L27.35-32.35 27.35-25.1 24.85-24.95ZM48.46-6.4L48.46-6.4Q47.56-8.8 47.56-12L47.56-12Q47.56-18.15 51.01-21.68 54.46-25.2 59.66-25.2L59.66-25.2Q67.81-25.2 70.36-18.6L70.36-18.6Q71.31-16.2 71.31-13L71.31-13Q71.31-6.85 67.86-3.33 64.41 0.2 59.21 0.2L59.21 0.2Q51.06 0.2 48.46-6.4ZM50.81-12.35Q50.81-7.75 53.19-5.23 55.56-2.7 59.31-2.7 63.06-2.7 65.56-5.38 68.06-8.05 68.06-12.65 68.06-17.25 65.71-19.78 63.36-22.3 59.59-22.3 55.81-22.3 53.31-19.63 50.81-16.95 50.81-12.35ZM96.42-25.25L96.42-22.25Q100.17-25 103.52-25.15L103.52-25.15Q106.57-25.15 108.22-24.4 109.87-23.65 110.95-22.28 112.02-20.9 112.02-18.4L112.02-18.4 112.02 0 108.77 0 108.77-17.55Q108.77-19.4 107.97-20.4L107.97-20.4Q106.37-22.25 103.07-22.25L103.07-22.25Q99.92-22.1 96.42-20.2L96.42-20.2 96.42 0 93.17 0 93.17-25 96.42-25.25ZM139.58-25.25L139.58-22.25Q143.33-25 146.68-25.15L146.68-25.15Q149.73-25.15 151.38-24.4 153.03-23.65 154.11-22.28 155.18-20.9 155.18-18.4L155.18-18.4 155.18 0 151.93 0 151.93-17.55Q151.93-19.4 151.13-20.4L151.13-20.4Q149.53-22.25 146.23-22.25L146.23-22.25Q143.08-22.1 139.58-20.2L139.58-20.2 139.58 0 136.33 0 136.33-25 139.58-25.25ZM181.99-12.3L181.99-11.5Q181.99-2.7 190.39-2.7L190.39-2.7Q193.94-2.7 196.89-3.65L196.89-3.65Q197.64-3.9 197.94-4.05L197.94-4.05 198.69-1.4Q196.94-0.35 192.34 0.1L192.34 0.1Q191.04 0.2 189.59 0.2L189.59 0.2Q185.39 0.2 182.59-1.9L182.59-1.9Q178.74-4.75 178.74-11.4 178.74-18.05 182.22-21.63 185.69-25.2 190.64-25.2 195.59-25.2 198.09-22L198.09-22Q199.99-19.45 199.99-15.25L199.99-15.25Q199.99-14.25 199.89-13.15L199.89-13.15 182.04-13.15Q181.99-12.75 181.99-12.3L181.99-12.3ZM190.84-22.1L190.84-22.1Q187.74-22.1 185.54-20.23 183.34-18.35 182.49-15.4L182.49-15.4 197.04-15.4Q196.79-20.95 192.74-21.85L192.74-21.85Q191.84-22.1 190.84-22.1ZM238.3-16.4L238.05-21.65Q236-22.3 233.85-22.3L233.85-22.3Q229.5-22.3 226.88-19.5 224.25-16.7 224.25-11.6L224.25-11.6Q224.25-2.7 232.5-2.7L232.5-2.7Q235.8-2.7 239.3-3.8L239.3-3.8Q240-4 240.15-4.1L240.15-4.1 240.95-1.4Q239.2-0.35 234.6 0.1L234.6 0.1Q233.3 0.2 231.85 0.2L231.85 0.2Q227.6 0.2 224.85-1.9L224.85-1.9Q221-4.8 221-11.45 221-18.1 224.58-21.68 228.15-25.25 233.8-25.25L233.8-25.25Q235.6-25.25 237.63-24.78 239.65-24.3 240.75-23.3L240.75-23.3 240.75-16.75 238.3-16.4ZM274.36-3.6L274.96-0.9Q274.06 0 271.71 0L271.71 0Q268.41 0 267.26-1.7L267.26-1.7Q265.31-3.55 265.31-6.7L265.31-6.7 265.31-22.1 262.51-22.1 262.96-25 265.31-25 265.31-29.95 268.56-30.25 268.56-25 274.36-25 274.36-22.1 268.56-22.1 268.56-5.9Q268.56-3 271.56-3L271.56-3Q272.86-3 274.36-3.6L274.36-3.6ZM341.53-3.6L342.13-0.9Q341.23 0 338.88 0L338.88 0Q335.58 0 334.43-1.7L334.43-1.7Q332.48-3.55 332.48-6.7L332.48-6.7 332.48-22.1 329.68-22.1 330.13-25 332.48-25 332.48-29.95 335.73-30.25 335.73-25 341.53-25 341.53-22.1 335.73-22.1 335.73-5.9Q335.73-3 338.73-3L338.73-3Q340.03-3 341.53-3.6L341.53-3.6ZM368.24-37.5L368.24-22.15Q372.19-25 375.84-25.15L375.84-25.15Q378.94-25.15 380.59-24.4 382.24-23.65 383.29-22.28 384.34-20.9 384.34-18.4L384.34-18.4 384.34 0 381.09 0 381.09-17.55Q381.09-19.4 380.29-20.4L380.29-20.4Q378.69-22.25 375.39-22.25L375.39-22.25Q372.14-22.1 368.24-20.15L368.24-20.15 368.24 0 364.99 0 364.99-37.25 368.24-37.5ZM409.65-12.3L409.65-11.5Q409.65-2.7 418.05-2.7L418.05-2.7Q421.6-2.7 424.55-3.65L424.55-3.65Q425.3-3.9 425.6-4.05L425.6-4.05 426.35-1.4Q424.6-0.35 420 0.1L420 0.1Q418.7 0.2 417.25 0.2L417.25 0.2Q413.05 0.2 410.25-1.9L410.25-1.9Q406.4-4.75 406.4-11.4 406.4-18.05 409.88-21.63 413.35-25.2 418.3-25.2 423.25-25.2 425.75-22L425.75-22Q427.65-19.45 427.65-15.25L427.65-15.25Q427.65-14.25 427.55-13.15L427.55-13.15 409.7-13.15Q409.65-12.75 409.65-12.3L409.65-12.3ZM418.5-22.1L418.5-22.1Q415.4-22.1 413.2-20.23 411-18.35 410.15-15.4L410.15-15.4 424.7-15.4Q424.45-20.95 420.4-21.85L420.4-21.85Q419.5-22.1 418.5-22.1ZM505.87 0L499.97-20.1 493.27 0 490.27 0 482.02-25 485.67-25.25 492.02-4.1 498.52-25 501.67-25.25 507.27-4.05 514.62-25 518.47-25.25 508.87 0 505.87 0ZM538.58-6.4L538.58-6.4Q537.68-8.8 537.68-12L537.68-12Q537.68-18.15 541.13-21.68 544.58-25.2 549.78-25.2L549.78-25.2Q557.93-25.2 560.48-18.6L560.48-18.6Q561.43-16.2 561.43-13L561.43-13Q561.43-6.85 557.98-3.33 554.53 0.2 549.33 0.2L549.33 0.2Q541.18 0.2 538.58-6.4ZM540.93-12.35Q540.93-7.75 543.31-5.23 545.68-2.7 549.43-2.7 553.18-2.7 555.68-5.38 558.18-8.05 558.18-12.65 558.18-17.25 555.83-19.78 553.48-22.3 549.71-22.3 545.93-22.3 543.43-19.63 540.93-16.95 540.93-12.35ZM597.64-24.5L596.34-21.5Q595.54-21.95 594.64-21.95 593.74-21.95 593.64-21.9L593.64-21.9Q591.74-21.9 589.82-20.53 587.89-19.15 586.54-17.45L586.54-17.45 586.54 0 583.29 0 583.29-25 586.54-25.25 586.54-19.65Q588.39-22 589.69-22.95L589.69-22.95Q592.09-24.75 594.29-24.85L594.29-24.85Q594.59-24.9 595.39-24.9 596.19-24.9 597.64-24.5L597.64-24.5ZM621.7 0L618.45 0 618.45-37.25 621.7-37.5 621.7 0ZM656.51-25.25L656.51-25.25Q659.46-25.25 662.11-23.5L662.11-23.5 662.11-37.25 665.36-37.5 665.36-1.15 665.11-1.15Q663.56-0.5 659.94-0.15 656.31 0.2 654.91 0.2L654.91 0.2Q650.71 0.2 647.96-1.9L647.96-1.9Q644.11-4.8 644.11-11.45 644.11-18.1 647.69-21.68 651.26-25.25 656.51-25.25ZM662.11-3.2L662.11-21.35Q659.61-22.3 657.21-22.3L657.21-22.3Q652.61-22.3 649.99-19.5 647.36-16.7 647.36-11.55 647.36-6.4 650.21-4.3L650.21-4.3Q652.26-2.7 655.39-2.7 658.51-2.7 662.11-3.2L662.11-3.2Z" opacity="1" transform="matrix(1,0,0,1,0,0)" fill="#ffffff" class="slogan-text-1" data-fill-palette-color="secondary" id="text-1"></path></svg></g></svg></g></svg></g></svg></g></svg></g></svg></g></svg></g><g mask="url(#0d1516e4-41b1-4e84-99db-f72ba6112c38)"><g transform="matrix(2.833287072289037, 0, 0, 2.833287072289037, 61.68620390252627, 1.0000000000000142)"><svg xmlns="http://www.w3.org/2000/svg" data-name="Layer 1" viewBox="1.9690299589967748 6.727456071546466 96.0536596720773 86.542589488435" x="0" y="0" height="86.542589488435" width="96.0536596720773" class="icon-none" data-fill-palette-color="accent" id="none"><path d="M98 10.51C91.58 49.44 78.4 56.37 67.88 54.76a23.62 23.62 0 0 1-6.74-2.19 28.59 28.59 0 0 1-8.23-6.14 35 35 0 0 0-5.16 12.24c-0.43-0.08-0.86-0.15-1.3-0.2a30.35 30.35 0 0 0-3.93-0.26 29.92 29.92 0 0 0-7.77 1c0.07-0.2 0.13-0.41 0.2-0.61A10 10 0 0 0 35.5 55a21.52 21.52 0 0 0-6.42-13.87L21.6 33.7a0.3 0.3 0 0 0-0.51 0.21 0.32 0.32 0 0 0 0 0.08 36.35 36.35 0 0 0 6.4 13.1C20 49.9 6.82 49.94 6.42 16.11h0a1.31 1.31 0 0 1 1.32-1.31C34 15.1 39.84 23.07 39.84 30.14a15.68 15.68 0 0 1-0.76 4.65 18.8 18.8 0 0 1-2.7 5.35 26.41 26.41 0 0 1 5.37 6.54 39.67 39.67 0 0 1 6.46-6.22l6.2-4.58h0l12.31-9a0.45 0.45 0 0 0-0.19-0.81h-0.12A54.72 54.72 0 0 0 45.5 32.55C43 20.69 45.94 1.14 96.36 8.24h0A2 2 0 0 1 98 10.51Zm-96 81A2.34 2.34 0 0 0 4.3 93.19l78.93 0.08h0a2.22 2.22 0 0 0 2.17-2.75A17.43 17.43 0 0 0 70.8 77.6a17.63 17.63 0 0 0-2.28-0.15 17.36 17.36 0 0 0-6.17 1.13 22 22 0 0 0-39.2-0.79c-0.48-0.1-1-0.2-1.45-0.26a21.82 21.82 0 0 0-2.84-0.19C10.58 77.34 3.3 82.17 2 90.48A2.36 2.36 0 0 0 2.06 91.51Z" fill="#ffffff" data-fill-palette-color="accent"></path></svg></g></g></svg></g><defs></defs></svg><rect width="395.52" height="247.2" fill="none" stroke="none" visibility="hidden"></rect></g></svg></g></svg>